<?xml version="1.0" standalone="no"?><!DOCTYPE svg PUBLIC "-//W3C//DTD SVG 1.1//EN" "http://www.w3.org/Graphics/SVG/1.1/DTD/svg11.dtd"><svg t="1554964218062" class="icon" style="" viewBox="0 0 1024 1024" version="1.1" xmlns="http://www.w3.org/2000/svg" p-id="2004" xmlns:xlink="http://www.w3.org/1999/xlink" width="128" height="128"><defs><style type="text/css"></style></defs><path d="M640 768H384V448H149.824l364.8-441.6 364.8 441.6H640v320z m-192-64h128V384h175.424l-236.8-281.6-236.8 281.6H448v320z" p-id="2005"></path><path d="M873.792 1024H150.208C66.24 1024 0 933.568 0 849.536V423.168C0 339.2 64 268.096 128 268.096v58.176s-64 38.784-64 90.432v426.368C64 894.784 98.496 960 150.208 960h723.584C925.504 960 960 901.248 960 849.536V423.168c0-51.712-64-90.432-64-90.432V274.56c64 0 128 71.04 128 155.072V856c0 77.568-66.24 168-150.208 168z" p-id="2006"></path></svg>